<svg width="894" height="894" viewBox="0 0 894 894" fill="none" xmlns="http://www.w3.org/2000/svg">
<rect x="0.0969238" y="4.39673" width="889.619" height="889.619" rx="270" transform="rotate(-0.27693 0.0969238 4.39673)" fill="#8B5CF6"/>
<ellipse cx="576.487" cy="454.369" rx="250.711" ry="246.234" transform="rotate(-0.27693 576.487 454.369)" fill="#252525"/>
<rect x="103.635" y="312.179" width="394.372" height="69.4303" rx="15" transform="rotate(-0.27693 103.635 312.179)" fill="#252525" stroke="#8B5CF6" stroke-width="10"/>
<line x1="394.832" y1="321.658" x2="395.063" y2="369.317" stroke="#8B5CF6" stroke-width="10"/>
<line x1="346.308" y1="321.893" x2="346.539" y2="369.552" stroke="#8B5CF6" stroke-width="10"/>
<line x1="297.784" y1="322.127" x2="298.014" y2="369.786" stroke="#8B5CF6" stroke-width="10"/>
<line x1="249.26" y1="322.362" x2="249.491" y2="370.021" stroke="#8B5CF6" stroke-width="10"/>
<line x1="200.737" y1="322.596" x2="200.967" y2="370.255" stroke="#8B5CF6" stroke-width="10"/>
<line x1="152.213" y1="322.83" x2="152.443" y2="370.489" stroke="#8B5CF6" stroke-width="10"/>
<line x1="443.357" y1="321.423" x2="443.587" y2="369.082" stroke="#8B5CF6" stroke-width="10"/>
<rect x="152.543" y="391.374" width="394.372" height="69.4303" rx="15" transform="rotate(-0.27693 152.543 391.374)" fill="#252525" stroke="#8B5CF6" stroke-width="10"/>
<line x1="443.74" y1="400.853" x2="443.971" y2="448.512" stroke="#8B5CF6" stroke-width="10"/>
<line x1="395.216" y1="401.088" x2="395.447" y2="448.747" stroke="#8B5CF6" stroke-width="10"/>
<line x1="346.692" y1="401.322" x2="346.923" y2="448.981" stroke="#8B5CF6" stroke-width="10"/>
<line x1="298.168" y1="401.556" x2="298.398" y2="449.216" stroke="#8B5CF6" stroke-width="10"/>
<line x1="249.644" y1="401.791" x2="249.875" y2="449.45" stroke="#8B5CF6" stroke-width="10"/>
<line x1="201.12" y1="402.025" x2="201.351" y2="449.684" stroke="#8B5CF6" stroke-width="10"/>
<line x1="492.265" y1="400.619" x2="492.495" y2="448.278" stroke="#8B5CF6" stroke-width="10"/>
<rect x="104.403" y="471.038" width="394.372" height="69.4303" rx="15" transform="rotate(-0.27693 104.403 471.038)" fill="#252525" stroke="#8B5CF6" stroke-width="10"/>
<line x1="395.601" y1="480.516" x2="395.831" y2="528.175" stroke="#8B5CF6" stroke-width="10"/>
<line x1="347.076" y1="480.751" x2="347.307" y2="528.411" stroke="#8B5CF6" stroke-width="10"/>
<line x1="298.552" y1="480.986" x2="298.783" y2="528.645" stroke="#8B5CF6" stroke-width="10"/>
<line x1="250.028" y1="481.22" x2="250.258" y2="528.879" stroke="#8B5CF6" stroke-width="10"/>
<line x1="201.504" y1="481.454" x2="201.735" y2="529.113" stroke="#8B5CF6" stroke-width="10"/>
<line x1="152.98" y1="481.689" x2="153.21" y2="529.348" stroke="#8B5CF6" stroke-width="10"/>
<line x1="444.125" y1="480.281" x2="444.355" y2="527.941" stroke="#8B5CF6" stroke-width="10"/>
<rect x="153.311" y="550.232" width="394.372" height="69.4303" rx="15" transform="rotate(-0.27693 153.311 550.232)" fill="#252525" stroke="#8B5CF6" stroke-width="10"/>
<line x1="444.508" y1="559.711" x2="444.739" y2="607.37" stroke="#8B5CF6" stroke-width="10"/>
<line x1="395.984" y1="559.946" x2="396.215" y2="607.605" stroke="#8B5CF6" stroke-width="10"/>
<line x1="347.46" y1="560.18" x2="347.69" y2="607.84" stroke="#8B5CF6" stroke-width="10"/>
<line x1="298.935" y1="560.415" x2="299.166" y2="608.074" stroke="#8B5CF6" stroke-width="10"/>
<line x1="250.412" y1="560.649" x2="250.643" y2="608.309" stroke="#8B5CF6" stroke-width="10"/>
<line x1="201.888" y1="560.884" x2="202.118" y2="608.543" stroke="#8B5CF6" stroke-width="10"/>
<line x1="493.033" y1="559.477" x2="493.263" y2="607.136" stroke="#8B5CF6" stroke-width="10"/>
<rect x="105.171" y="629.896" width="394.372" height="69.4303" rx="15" transform="rotate(-0.27693 105.171 629.896)" fill="#252525" stroke="#8B5CF6" stroke-width="10"/>
<line x1="396.369" y1="639.376" x2="396.599" y2="687.035" stroke="#8B5CF6" stroke-width="10"/>
<line x1="347.844" y1="639.61" x2="348.075" y2="687.269" stroke="#8B5CF6" stroke-width="10"/>
<line x1="299.32" y1="639.844" x2="299.55" y2="687.504" stroke="#8B5CF6" stroke-width="10"/>
<line x1="250.796" y1="640.079" x2="251.026" y2="687.738" stroke="#8B5CF6" stroke-width="10"/>
<line x1="202.272" y1="640.313" x2="202.503" y2="687.972" stroke="#8B5CF6" stroke-width="10"/>
<line x1="153.748" y1="640.548" x2="153.978" y2="688.207" stroke="#8B5CF6" stroke-width="10"/>
<line x1="444.893" y1="639.141" x2="445.123" y2="686.8" stroke="#8B5CF6" stroke-width="10"/>
<g filter="url(#filter0_i_80424_160)">
<path d="M699.023 348.783L700.053 561.827L722.582 561.718L721.552 348.674L699.023 348.783ZM654.094 375.631L654.995 562.045L677.524 561.936L676.623 375.522L654.094 375.631ZM609.293 429.11L609.937 562.262L632.466 562.153L631.822 429.001L609.293 429.11ZM564.492 482.589L564.879 562.48L587.408 562.371L587.022 482.48L564.492 482.589Z" fill="#8B5CF6"/>
</g>
<defs>
<filter id="filter0_i_80424_160" x="564.492" y="348.674" width="158.09" height="217.806" filterUnits="userSpaceOnUse" color-interpolation-filters="sRGB">
<feFlood flood-opacity="0" result="BackgroundImageFix"/>
<feBlend mode="normal" in="SourceGraphic" in2="BackgroundImageFix" result="shape"/>
<feColorMatrix in="SourceAlpha" type="matrix" values="0 0 0 0 0 0 0 0 0 0 0 0 0 0 0 0 0 0 127 0" result="hardAlpha"/>
<feOffset dy="4"/>
<feGaussianBlur stdDeviation="2"/>
<feComposite in2="hardAlpha" operator="arithmetic" k2="-1" k3="1"/>
<feColorMatrix type="matrix" values="0 0 0 0 0 0 0 0 0 0 0 0 0 0 0 0 0 0 0.25 0"/>
<feBlend mode="normal" in2="shape" result="effect1_innerShadow_80424_160"/>
</filter>
</defs>
</svg>
